# xmcd
#
# Track frame offsets: 
#        150
#        12700
#        29605
#        48147
#        63622
#        76272
#        94790
#        111242
#        128522
#        141240
#
# Disc length: 2103 seconds
#
# Revision: 2
# Processed by: cddbd v1.5PL3 Copyright (c) Steve Scherf et al.
# Submitted via: ExactAudioCopy v0.95a3
#
DISCID=8508350a
DTITLE=Bobbie Cryner - Girl Of Your Dreams
DYEAR=1996
DGENRE=Country
TTITLE0=Son Of A Preacher Man
TTITLE1=I Didn't Know My Own Strength
TTITLE2=The Girl Of Your Dreams
TTITLE3=Vision Of Loneliness
TTITLE4=A Lesson In Leaving
TTITLE5=You'd Think He'd Know Me Better
TTITLE6=I Just Can't Stand To Be Unhappy
TTITLE7=Nobody Leaves
TTITLE8=Oh To Be The One
TTITLE9=Just Say So
EXTD=
EXTT0=
EXTT1=
EXTT2=
EXTT3=
EXTT4=
EXTT5=
EXTT6=
EXTT7=
EXTT8=
EXTT9=
PLAYORDER=
